<?xml version="1.0" encoding="UTF-8" standalone="no"?>
<!-- Created with Inkscape (http://www.inkscape.org/) -->

<svg
   width="608.60767mm"
   height="772.84412mm"
   viewBox="0 0 608.60767 772.84412"
   version="1.1"
   id="svg5"
   xml:space="preserve"
   xmlns="http://www.w3.org/2000/svg"
   xmlns:svg="http://www.w3.org/2000/svg"><defs
     id="defs2" /><g
     id="g1784"
     transform="matrix(1.7243142,0,0,-1.7243143,37.97339,455.23263)"><path
       d="m 0,0 -15.224,-79.291 29.179,-12.687 13.321,13.321 140.187,-98.321 36.791,23.471 -11.418,45.671 17.761,28.545 93.881,2.537 13.321,70.411 -32.351,37.425 39.328,111.008 -4.44,29.179 h -17.127 l -38.06,-24.105 -34.253,19.03 -4.441,28.545 38.694,57.724 -26.642,5.074 -80.559,-76.753 9.515,-26.642 -29.814,-41.866 -36.156,21.567 L 58.358,102.127 35.328,116.716 23.47,52.649 29.179,29.813 Z"
       style="fill:none;stroke:#6cbc3a;stroke-width:12;stroke-linecap:butt;stroke-linejoin:miter;stroke-miterlimit:10;stroke-dasharray:none;stroke-opacity:1"
       id="path1786" /></g></svg>
