<?xml version="1.0" encoding="UTF-8" standalone="no"?>
<!-- Created with Inkscape (http://www.inkscape.org/) -->

<svg
   width="381mm"
   height="381mm"
   viewBox="0 0 381 381"
   version="1.1"
   id="svg5"
   xml:space="preserve"
   xmlns="http://www.w3.org/2000/svg"
   xmlns:svg="http://www.w3.org/2000/svg"><defs
     id="defs2"><clipPath
       clipPathUnits="userSpaceOnUse"
       id="clipPath300"><path
         d="M 0,1080 H 1080 V 0 H 0 Z"
         id="path298" /></clipPath></defs><g
     id="g288"
     transform="matrix(0.35277776,0,0,-0.35277778,60.532416,153.11925)"><path
       d="M 0,0 H 13.116 L 50.231,-89.879 87.494,0 h 12.669 L 55.298,-105.082 H 44.864 Z"
       style="fill:#063f1f;fill-opacity:1;fill-rule:nonzero;stroke:none"
       id="path290" /></g><path
     d="m 103.48982,153.11932 h 4.15396 v 36.80778 h -4.15396 z"
     style="fill:#063f1f;fill-opacity:1;fill-rule:nonzero;stroke:none;stroke-width:0.352778"
     id="path292" /><g
     id="g294"
     transform="matrix(0.35277776,0,0,-0.35277778,-1.4058673e-5,381.00001)"><g
       id="g296"
       clip-path="url(#clipPath300)"><g
         id="g302"
         transform="translate(328.8268,556.8277)"><path
           d="m 0,0 7.304,8.645 c 10.88,-9.986 21.314,-14.756 35.772,-14.756 14.16,0 23.253,7.452 23.253,17.737 v 0.298 c 0,9.689 -5.218,15.054 -27.128,19.824 C 15.203,36.965 4.174,44.716 4.174,61.857 v 0.298 c 0,16.246 14.458,28.469 34.282,28.469 15.352,0 25.935,-4.323 36.667,-12.819 l -6.857,-9.092 c -9.689,7.9 -19.376,11.328 -30.109,11.328 -13.713,0 -22.208,-7.304 -22.208,-16.843 V 62.9 c 0,-9.837 5.216,-15.502 28.319,-20.271 C 67.521,37.412 78.253,29.065 78.253,13.116 V 12.819 C 78.253,-5.068 63.347,-16.694 42.629,-16.694 25.935,-16.694 12.52,-11.328 0,0"
           style="fill:#063f1f;fill-opacity:1;fill-rule:nonzero;stroke:none"
           id="path304" /></g><path
         d="m 432.114,645.961 h 11.775 V 541.624 h -11.775 z"
         style="fill:#063f1f;fill-opacity:1;fill-rule:nonzero;stroke:none"
         id="path306" /><g
         id="g308"
         transform="translate(501.5674,635.0799)"><path
           d="M 0,0 H -35.176 V 10.881 H 46.952 V 0 H 11.776 V -93.456 H 0 Z"
           style="fill:#063f1f;fill-opacity:1;fill-rule:nonzero;stroke:none"
           id="path310" /></g><g
         id="g312"
         transform="translate(569.9753,645.9612)"><path
           d="M 0,0 H 75.421 V -10.732 H 11.776 V -46.356 H 68.714 V -57.087 H 11.776 v -36.518 h 64.39 v -10.732 H 0 Z"
           style="fill:#063f1f;fill-opacity:1;fill-rule:nonzero;stroke:none"
           id="path314" /></g><g
         id="g316"
         transform="translate(115,459.5613)"><path
           d="m 0,0 v 0.298 c 0,30.407 23.252,54.255 54.851,54.255 21.166,0 35.176,-8.943 44.269,-21.613 L 77.358,16.098 C 71.396,23.401 64.688,28.32 54.553,28.32 39.946,28.32 29.661,15.799 29.661,0.596 V 0.298 c 0,-15.651 10.285,-27.873 24.892,-27.873 10.881,0 17.141,5.068 23.55,12.669 L 99.865,-30.407 C 89.879,-43.971 76.762,-53.957 53.808,-53.957 23.997,-53.957 0,-31.152 0,0"
           style="fill:#063f1f;fill-opacity:1;fill-rule:nonzero;stroke:none"
           id="path318" /></g><g
         id="g320"
         transform="translate(287.8927,448.9783)"><path
           d="M 0,0 -11.626,29.513 -23.401,0 Z M -25.339,63.795 H 2.534 L 46.952,-41.288 H 15.949 l -7.453,18.781 h -40.393 l -7.453,-18.781 h -30.257 z"
           style="fill:#063f1f;fill-opacity:1;fill-rule:nonzero;stroke:none"
           id="path322" /></g><g
         id="g324"
         transform="translate(363.3066,391.4437)"><path
           d="m 0,0 11.626,15.8 c -23.103,5.962 -40.095,25.935 -40.095,52.318 v 0.297 c 0,30.407 23.252,54.256 54.851,54.256 21.166,0 35.176,-8.944 44.269,-21.613 L 48.889,84.215 C 42.927,91.518 36.219,96.437 26.084,96.437 11.477,96.437 1.192,83.917 1.192,68.714 v -0.299 c 0,-15.65 10.285,-27.873 24.892,-27.873 10.881,0 17.141,5.068 23.55,12.67 L 71.396,37.711 C 62.304,25.19 50.231,16.098 30.705,14.458 L 22.358,-9.539 Z"
           style="fill:#063f1f;fill-opacity:1;fill-rule:nonzero;stroke:none"
           id="path326" /></g><g
         id="g328"
         transform="translate(507.7304,448.9783)"><path
           d="M 0,0 -11.626,29.513 -23.401,0 Z M -25.339,63.795 H 2.534 L 46.952,-41.288 H 15.949 l -7.453,18.781 h -40.393 l -7.453,-18.781 h -30.257 z"
           style="fill:#063f1f;fill-opacity:1;fill-rule:nonzero;stroke:none"
           id="path330" /></g><g
         id="g332"
         transform="translate(607.5888,460.1573)"><path
           d="m 0,0 c 10.135,0 16.545,5.366 16.545,13.713 v 0.298 c 0,8.943 -6.41,13.564 -16.694,13.564 H -13.862 V 0 Z M -42.779,51.87 H 2.086 c 26.234,0 43.226,-13.414 43.226,-36.517 v -0.299 c 0,-24.743 -18.93,-37.71 -44.716,-37.71 h -14.458 v -29.811 h -28.917 z"
           style="fill:#063f1f;fill-opacity:1;fill-rule:nonzero;stroke:none"
           id="path334" /></g><g
         id="g336"
         transform="translate(716.093,448.9783)"><path
           d="M 0,0 -11.626,29.513 -23.401,0 Z M -25.339,63.795 H 2.534 L 46.952,-41.288 H 15.949 l -7.453,18.781 h -40.393 l -7.453,-18.781 h -30.257 z"
           style="fill:#063f1f;fill-opacity:1;fill-rule:nonzero;stroke:none"
           id="path338" /></g><g
         id="g340"
         transform="translate(750.0717,512.0278)"><path
           d="M 0,0 H 32.195 L 55.894,-66.03 79.743,0 h 31.599 L 69.011,-105.082 H 42.182 Z"
           style="fill:#063f1f;fill-opacity:1;fill-rule:nonzero;stroke:none"
           id="path342" /></g><g
         id="g344"
         transform="translate(918.0484,448.9783)"><path
           d="M 0,0 -11.626,29.513 -23.401,0 Z M -25.339,63.795 H 2.534 L 46.952,-41.288 H 15.949 l -7.453,18.781 h -40.393 l -7.453,-18.781 h -30.257 z"
           style="fill:#063f1f;fill-opacity:1;fill-rule:nonzero;stroke:none"
           id="path346" /></g><g
         id="g348"
         transform="translate(898.5488,355.3555)"><path
           d="M 0,0 V 19.301 H 11.9 V 0.15 c 0,-4.351 2.25,-6.201 5.401,-6.201 3.2,0 5.4,1.7 5.4,5.951 V 19.301 H 34.602 V 0.25 c 0,-11.951 -6.951,-16.651 -17.401,-16.651 C 6.801,-16.401 0,-11.601 0,0"
           style="fill:#063f1f;fill-opacity:1;fill-rule:nonzero;stroke:none"
           id="path350" /></g><g
         id="g352"
         transform="translate(936.8486,374.6563)"><path
           d="m 0,0 h 11.701 v -25.001 h 16.45 V -35.002 H 0 Z"
           style="fill:#063f1f;fill-opacity:1;fill-rule:nonzero;stroke:none"
           id="path354" /></g><g
         id="g356"
         transform="translate(784.3018,364.4561)"><path
           d="m 0,0 v -14.601 h 1.95 c 5.401,0 8.8,2.2 8.8,7.25 V -7.25 C 10.75,-2.2 7.351,0 1.95,0 Z M -11.701,10.2 H 1.7 C 15.601,10.2 22.551,3.4 22.551,-7 v -0.101 c 0,-10.4 -7.101,-17.701 -21.251,-17.701 h -13.001 z"
           style="fill:#063f1f;fill-opacity:1;fill-rule:nonzero;stroke:none"
           id="path358" /></g><g
         id="g360"
         transform="translate(862.749,344.9048)"><path
           d="m 0,0 6.251,7.45 c 3.8,-2.95 8.101,-4.1 12.25,-4.1 2.15,0 3.001,0.55 3.001,1.5 v 0.1 c 0,1 -1.101,1.55 -4.851,2.3 C 8.801,8.851 1.9,11.101 1.9,18.501 v 0.1 c 0,6.65 5.25,11.801 14.851,11.801 6.801,0 11.751,-1.6 15.802,-4.8 l -5.701,-7.901 c -3.35,2.4 -7.25,3.45 -10.5,3.45 -1.75,0 -2.551,-0.6 -2.551,-1.45 v -0.1 c 0,-0.95 0.9,-1.6 4.65,-2.25 8.951,-1.6 14.951,-4.3 14.951,-11.301 V 5.95 C 33.402,-1.4 27.352,-5.9 17.951,-5.9 10.801,-5.9 4.45,-3.95 0,0"
           style="fill:#063f1f;fill-opacity:1;fill-rule:nonzero;stroke:none"
           id="path362" /></g><g
         id="g364"
         transform="translate(835.6514,357.0552)"><path
           d="M 0,0 V 0.1 C 0,4.25 -2.85,8 -7.351,8 c -4.45,0 -7.25,-3.7 -7.25,-7.8 V 0.1 c 0,-4.15 2.85,-7.9 7.351,-7.9 C -2.8,-7.8 0,-4.1 0,0 m -26.401,0 v 0.1 c 0,10.151 8.35,18.251 19.151,18.251 10.801,0 19.051,-7.95 19.051,-18.151 V 0.1 c 0,-10.15 -8.351,-18.251 -19.152,-18.251 -10.8,0 -19.05,7.95 -19.05,18.151"
           style="fill:#063f1f;fill-opacity:1;fill-rule:nonzero;stroke:none"
           id="path366" /></g><g
         id="g368"
         transform="translate(525.7559,186.6496)"><path
           d="m 0,0 -204.351,143.323 -18.398,-18.398 -56.82,24.704 8.474,44.134 20.219,-3.881 -5.366,-27.945 28.847,-12.542 20.711,20.711 207.226,-145.339 41.953,26.762 -16.022,64.086 31.303,50.309 135.055,3.65 3.186,16.838 20.229,-3.827 -6.27,-33.144 -140.571,-3.798 -20.842,-33.497 17.5,-70.002 z"
           style="fill:#6cbc3a;fill-opacity:1;fill-rule:nonzero;stroke:none"
           id="path370" /></g><g
         id="g372"
         transform="translate(734.9398,566.3528)"><path
           d="m 0,0 -19.406,6.876 50.858,143.55 -4.799,31.537 h -13.31 l -58.512,-37.058 -60.025,33.348 -7.91,50.848 50.372,75.146 -18.619,3.546 -109.585,-104.407 13.524,-37.868 -46.881,-65.831 -16.77,11.942 40.649,57.082 -14.411,40.351 126.932,120.936 59.599,-11.353 -63.23,-94.326 5.126,-32.957 40.541,-22.523 53.229,33.712 h 36.973 l 8.237,-54.132 z"
           style="fill:#6cbc3a;fill-opacity:1;fill-rule:nonzero;stroke:none"
           id="path374" /></g></g></g></svg>
